<svg width="20" height="20" viewBox="0 0 20 20" fill="none" xmlns="http://www.w3.org/2000/svg">
<path d="M18.3338 9.141V10.8577C18.3338 11.316 17.9672 11.691 17.5005 11.7077H15.8672C14.9672 11.7077 14.1422 11.0493 14.0672 10.1493C14.0172 9.62433 14.2172 9.13267 14.5672 8.791C14.8755 8.47433 15.3005 8.29102 15.7672 8.29102H17.5005C17.9672 8.30768 18.3338 8.68267 18.3338 9.141Z" fill="#363A3F"/>
<path d="M17.0587 12.9584H15.867C14.2837 12.9584 12.9503 11.7667 12.817 10.2501C12.742 9.38342 13.0587 8.51675 13.692 7.90008C14.2253 7.35008 14.967 7.04175 15.767 7.04175H17.0587C17.3003 7.04175 17.5003 6.84175 17.4753 6.60008C17.292 4.57508 15.9503 3.19175 13.9587 2.95841C13.7587 2.92508 13.5503 2.91675 13.3337 2.91675H5.83366C5.60033 2.91675 5.37533 2.93341 5.15866 2.96675C3.03366 3.23341 1.66699 4.81675 1.66699 7.08342V12.9167C1.66699 15.2167 3.53366 17.0834 5.83366 17.0834H13.3337C15.667 17.0834 17.2753 15.6251 17.4753 13.4001C17.5003 13.1584 17.3003 12.9584 17.0587 12.9584ZM10.8337 8.12508H5.83366C5.49199 8.12508 5.20866 7.84175 5.20866 7.50008C5.20866 7.15842 5.49199 6.87508 5.83366 6.87508H10.8337C11.1753 6.87508 11.4587 7.15842 11.4587 7.50008C11.4587 7.84175 11.1753 8.12508 10.8337 8.12508Z" fill="#363A3F"/>
</svg>
