<svg width="20" height="20" viewBox="0 0 20 20" fill="none" xmlns="http://www.w3.org/2000/svg">
<path d="M4.16634 12.4999C2.32467 12.4999 0.833008 13.9916 0.833008 15.8332C0.833008 16.4582 1.00801 17.0499 1.31634 17.5499C1.89134 18.5166 2.94967 19.1666 4.16634 19.1666C5.38301 19.1666 6.44134 18.5166 7.01634 17.5499C7.32467 17.0499 7.49967 16.4582 7.49967 15.8332C7.49967 13.9916 6.00801 12.4999 4.16634 12.4999ZM5.40801 16.4416H4.79134V17.0916C4.79134 17.4332 4.50801 17.7166 4.16634 17.7166C3.82467 17.7166 3.54134 17.4332 3.54134 17.0916V16.4416H2.92467C2.58301 16.4416 2.29967 16.1582 2.29967 15.8166C2.29967 15.4749 2.58301 15.1916 2.92467 15.1916H3.54134V14.5999C3.54134 14.2582 3.82467 13.9749 4.16634 13.9749C4.50801 13.9749 4.79134 14.2582 4.79134 14.5999V15.1916H5.40801C5.74967 15.1916 6.03301 15.4749 6.03301 15.8166C6.03301 16.1582 5.75801 16.4416 5.40801 16.4416ZM17.9163 10.4166H15.833C14.9163 10.4166 14.1663 11.1666 14.1663 12.0832C14.1663 12.9999 14.9163 13.7499 15.833 13.7499H17.9163C18.1497 13.7499 18.333 13.5666 18.333 13.3332V10.8332C18.333 10.5999 18.1497 10.4166 17.9163 10.4166ZM13.774 4.50005C14.024 4.74172 13.8157 5.11672 13.4657 5.11672L6.5657 5.10838C6.1657 5.10838 5.9657 4.62505 6.24903 4.34172L7.70737 2.87505C8.94067 1.65005 10.9323 1.65005 12.1657 2.87505L13.7407 4.46672C13.749 4.47505 13.7657 4.49172 13.774 4.50005Z" fill="#363A3F"/>
<path d="M18.2245 15.5499C17.7162 17.2666 16.2495 18.3333 14.2495 18.3333H8.83283C8.50783 18.3333 8.29948 17.9749 8.43283 17.6749C8.68283 17.0916 8.84116 16.4333 8.84116 15.8333C8.84116 13.3083 6.78281 11.2499 4.25781 11.2499C3.62448 11.2499 3.00781 11.3833 2.44115 11.6333C2.13281 11.7666 1.75781 11.5583 1.75781 11.2249V9.99992C1.75781 7.73325 3.12448 6.14992 5.24948 5.88325C5.45781 5.84992 5.6828 5.83325 5.91614 5.83325H14.2495C14.4662 5.83325 14.6745 5.84159 14.8745 5.87492C16.5578 6.06659 17.7745 7.09159 18.2245 8.61659C18.3078 8.89159 18.1078 9.16659 17.8245 9.16659H15.9162C14.1078 9.16659 12.6745 10.8166 13.0662 12.6916C13.3412 14.0583 14.6078 14.9999 15.9995 14.9999H17.8245C18.1162 14.9999 18.3078 15.2833 18.2245 15.5499Z" fill="#363A3F"/>
</svg>
